<?xml version="1.0" encoding="UTF-8" standalone="no"?>
<!-- Generator: Gravit.io -->
<svg xmlns="http://www.w3.org/2000/svg" xmlns:xlink="http://www.w3.org/1999/xlink" style="isolation:isolate" viewBox="0 0 1200 457" width="1200pt" height="457pt">
<defs>
<clipPath id="_clipPath_KQOo2dcZAyfZJL15hQyY73LdnlKtWdCn">
<rect width="1200" height="457"/>
</clipPath>
</defs>
<g clip-path="url(#_clipPath_KQOo2dcZAyfZJL15hQyY73LdnlKtWdCn)">
<rect width="1200" height="457" style="fill:rgb(202,37,63)"/>
<g>
<path d=" M 183.393 121 L 183.393 135.537 L 168.962 135.537 L 168.962 197.439 L 152.839 197.439 L 152.839 135.537 L 137.879 135.537 L 137.879 121 L 183.393 121 Z  M 205.105 121 L 205.105 152.4 L 218.849 152.4 L 218.849 121 L 234.866 121 L 234.866 197.439 L 218.849 197.439 L 218.849 166.884 L 205.105 166.884 L 205.105 197.439 L 189.087 197.439 L 189.087 121 L 205.105 121 Z  M 240.877 197.439 L 240.877 121 L 277.987 121 L 277.987 135.537 L 256.736 135.537 L 256.736 150.286 L 276.93 150.286 L 276.93 164.559 L 256.948 164.559 L 256.948 182.955 L 278.515 182.955 L 278.515 197.439 L 240.877 197.439 Z " fill="rgb(220,220,220)"/>
<g>
<path d=" M 199.807 250.415 L 185.92 328.177 L 161.967 328.177 L 140.356 202.681 L 165.959 202.681 L 177.242 277.493 L 190.694 202.681 L 208.919 202.681 L 222.372 277.493 L 233.654 202.681 L 259.257 202.681 L 237.647 328.177 L 213.693 328.177 L 199.807 250.415 Z " fill="rgb(220,220,220)"/>
<path d=" M 266.673 328.177 L 266.673 202.681 L 342.44 202.681 L 342.44 328.177 L 266.673 328.177 Z  M 293.057 226.548 L 293.057 304.397 L 316.143 304.397 L 316.143 226.548 L 293.057 226.548 Z " fill-rule="evenodd" fill="rgb(220,220,220)"/>
<path d=" M 400.909 265.169 L 418.267 202.681 L 448.643 202.681 L 448.643 328.177 L 424.342 328.177 L 424.342 250.068 L 404.814 328.177 L 397.003 328.177 L 377.476 250.068 L 377.476 328.177 L 353.175 328.177 L 353.175 202.681 L 383.551 202.681 L 400.909 265.169 Z " fill="rgb(220,220,220)"/>
<path d=" M 460.766 328.177 L 460.766 202.681 L 521.692 202.681 L 521.692 226.548 L 486.803 226.548 L 486.803 250.762 L 519.956 250.762 L 519.956 274.195 L 487.15 274.195 L 487.15 304.397 L 522.56 304.397 L 522.56 328.177 L 460.766 328.177 Z " fill="rgb(220,220,220)"/>
<path d=" M 558.23 202.681 L 583.746 274.716 L 583.746 202.681 L 608.568 202.681 L 608.568 328.177 L 582.531 328.177 L 556.842 256.143 L 556.842 328.177 L 532.193 328.177 L 532.193 202.681 L 558.23 202.681 Z " fill="rgb(220,220,220)"/>
<path d=" M 629.538 207.013 L 621.332 207.013 L 621.332 186.223 L 642.613 186.223 L 642.613 204.805 L 629.538 231.466 L 620.799 231.466 L 629.538 207.013 Z " fill="rgb(220,220,220)"/>
<path d=" M 724.028 274.455 L 724.028 328.177 L 655.031 328.177 L 655.031 289.123 L 681.328 289.123 L 681.328 304.397 L 697.644 304.397 L 697.644 284.436 L 655.899 252.932 L 655.899 202.681 L 723.247 202.681 L 723.247 240 L 699.38 240 L 699.38 226.635 L 682.196 226.635 L 682.196 243.038 L 724.028 274.455 Z " fill="rgb(220,220,220)"/>
</g>
<g>
<path d=" M 831.604 250.415 L 817.718 328.177 L 793.764 328.177 L 772.153 202.681 L 797.756 202.681 L 809.039 277.493 L 822.491 202.681 L 840.717 202.681 L 854.169 277.493 L 865.451 202.681 L 891.054 202.681 L 869.444 328.177 L 845.49 328.177 L 831.604 250.415 Z " fill="rgb(220,220,220)"/>
<path d=" M 925.662 286.953 L 925.662 328.177 L 899.279 328.177 L 899.279 222.556 L 919.5 202.681 L 974.351 202.681 L 974.351 328.177 L 948.054 328.177 L 948.054 286.953 L 925.662 286.953 Z  M 925.662 263.086 L 948.054 263.086 L 948.054 226.548 L 925.662 226.548 L 925.662 263.086 Z " fill-rule="evenodd" fill="rgb(220,220,220)"/>
<path d=" M 1062.121 328.177 L 1035.737 328.177 L 1020.115 282.787 L 1013.172 282.787 L 1013.172 328.177 L 986.875 328.177 L 986.875 220.386 L 1005.969 202.681 L 1059.691 202.681 L 1059.691 282.44 L 1045.458 282.44 L 1062.121 328.177 Z  M 1013.172 259.267 L 1033.394 259.267 L 1033.394 226.548 L 1013.172 226.548 L 1013.172 259.267 Z " fill-rule="evenodd" fill="rgb(220,220,220)"/>
</g>
</g>
</g>
</svg>